<svg width="24" height="24" viewBox="0 0 24 24" fill="none" xmlns="http://www.w3.org/2000/svg">
<path d="M20.6702 6.32999C20.8809 6.54092 20.9992 6.82686 20.9992 7.12499C20.9992 7.42311 20.8809 7.70905 20.6702 7.91999L9.79522 18.795C9.58428 19.0057 9.29835 19.124 9.00022 19.124C8.7021 19.124 8.41616 19.0057 8.20522 18.795L3.33022 13.92C3.13161 13.7066 3.02345 13.4245 3.02849 13.133C3.03352 12.8416 3.15136 12.5634 3.35722 12.357C3.56363 12.1511 3.8418 12.0333 4.13328 12.0283C4.42475 12.0232 4.70683 12.1314 4.92022 12.33L9.00022 16.41L19.0802 6.32999C19.2912 6.11931 19.5771 6.00098 19.8752 6.00098C20.1733 6.00098 20.4593 6.11931 20.6702 6.32999Z" fill="#DA4646"/>
</svg>
