<svg width="26" height="26" viewBox="0 0 26 26" fill="none" xmlns="http://www.w3.org/2000/svg">
<path d="M13 25C19.6276 25 25 19.6276 25 13C25 6.3724 19.6276 1 13 1C6.3724 1 1 6.3724 1 13C1 19.6276 6.3724 25 13 25Z" stroke="black" stroke-width="2" stroke-linecap="round" stroke-linejoin="round"/>
<path d="M13 12.4001C13.7956 12.4001 14.5587 12.0841 15.1213 11.5215C15.6839 10.9589 16 10.1958 16 9.40015C16 8.6045 15.6839 7.84144 15.1213 7.27883C14.5587 6.71622 13.7956 6.40015 13 6.40015C12.2044 6.40015 11.4413 6.71622 10.8787 7.27883C10.3161 7.84144 10 8.6045 10 9.40015C10 10.1958 10.3161 10.9589 10.8787 11.5215C11.4413 12.0841 12.2044 12.4001 13 12.4001Z" stroke="black" stroke-width="2" stroke-linejoin="round"/>
<path d="M4.61328 21.599C4.81968 18.4724 7.42128 15.9998 10.6001 15.9998H15.4001C18.5747 15.9998 21.1739 18.4658 21.3863 21.5864" stroke="black" stroke-width="2" stroke-linecap="round" stroke-linejoin="round"/>
</svg>
