<svg width="24" height="24" viewBox="0 0 24 24" fill="none" xmlns="http://www.w3.org/2000/svg">
<g clip-path="url(#clip0_739_4335)">
<path d="M20.4555 3.5445L22.9695 4.047C23.1045 4.074 23.2155 4.173 23.2545 4.3065C23.2742 4.37135 23.276 4.44032 23.2596 4.50609C23.2432 4.57185 23.2093 4.63195 23.1615 4.68L21.102 6.741C20.8556 6.98695 20.5217 7.12506 20.1735 7.125H18.465L14.175 11.4165C14.2568 11.7255 14.2719 12.0485 14.2192 12.3638C14.1664 12.6791 14.0471 12.9795 13.8691 13.2451C13.6911 13.5107 13.4586 13.7353 13.1871 13.9039C12.9155 14.0726 12.6111 14.1814 12.2941 14.2232C11.9772 14.265 11.655 14.2388 11.349 14.1463C11.043 14.0538 10.7602 13.8971 10.5194 13.6868C10.2787 13.4764 10.0856 13.2172 9.95291 12.9263C9.82023 12.6355 9.75106 12.3197 9.75 12C9.75023 11.6548 9.82981 11.3143 9.9826 11.0048C10.1354 10.6953 10.3573 10.4251 10.6312 10.215C10.905 10.0049 11.2235 9.86064 11.5621 9.79327C11.9006 9.72591 12.2501 9.73727 12.5835 9.8265L16.875 5.53349V3.828C16.875 3.48 17.013 3.1455 17.259 2.8995L19.32 0.838495C19.368 0.790689 19.4281 0.756796 19.4939 0.74042C19.5597 0.724044 19.6286 0.725798 19.6935 0.745495C19.827 0.784495 19.926 0.895495 19.953 1.0305L20.4555 3.5445Z" fill="black"/>
<path d="M3.00004 12C3.00158 13.2869 3.2791 14.5586 3.81389 15.7292C4.34868 16.8997 5.12829 17.942 6.10013 18.7856C7.07197 19.6293 8.21344 20.2547 9.44754 20.6197C10.6816 20.9847 11.9797 21.0807 13.2541 20.9014C14.5284 20.7221 15.7496 20.2716 16.835 19.5802C17.9205 18.8888 18.845 17.9727 19.5463 16.8936C20.2476 15.8146 20.7094 14.5976 20.9004 13.3249C21.0914 12.0523 21.0072 10.7534 20.6535 9.516C20.6039 9.37144 20.5842 9.21828 20.5956 9.06585C20.607 8.91343 20.6494 8.76492 20.72 8.62937C20.7907 8.49383 20.8882 8.37408 21.0066 8.27742C21.125 8.18076 21.2618 8.1092 21.4088 8.06712C21.5557 8.02503 21.7097 8.01329 21.8613 8.03261C22.013 8.05193 22.1591 8.10191 22.2908 8.1795C22.4225 8.25709 22.537 8.36067 22.6274 8.48393C22.7178 8.6072 22.7821 8.74757 22.8165 8.89651C23.5013 11.2928 23.3712 13.8486 22.4467 16.163C21.5222 18.4774 19.8555 20.4194 17.7082 21.6843C15.5608 22.9492 13.0543 23.4655 10.5819 23.1522C8.10942 22.8389 5.81095 21.7136 4.04704 19.953C2.28505 18.1895 1.1586 15.8908 0.844545 13.4178C0.530488 10.9448 1.04661 8.43753 2.31187 6.28961C3.57714 4.1417 5.5199 2.4748 7.83513 1.55062C10.1504 0.626433 12.707 0.497305 15.1035 1.18351C15.3889 1.26692 15.6296 1.45991 15.7731 1.72028C15.9167 1.98066 15.9513 2.28726 15.8694 2.57307C15.7875 2.85888 15.5959 3.10067 15.3363 3.2456C15.0767 3.39053 14.7703 3.4268 14.484 3.3465C13.1439 2.962 11.7328 2.89405 10.3619 3.148C8.99104 3.40196 7.6979 3.97087 6.58443 4.8099C5.47096 5.64893 4.5676 6.73514 3.94558 7.98288C3.32356 9.23063 2.99987 10.6058 3.00004 12Z" fill="black"/>
<path d="M7.49998 12C7.50007 12.8199 7.72401 13.6242 8.14763 14.3262C8.57125 15.0281 9.17849 15.6011 9.90384 15.9833C10.6292 16.3655 11.4451 16.5424 12.2636 16.495C13.0821 16.4475 13.8722 16.1775 14.5485 15.714C15.2247 15.2494 15.761 14.6087 16.0994 13.8613C16.4378 13.1139 16.5654 12.2882 16.4685 11.4735C16.4423 11.2758 16.4692 11.0747 16.5466 10.8909C16.6239 10.7071 16.7488 10.5472 16.9085 10.4277C17.0682 10.3082 17.2568 10.2334 17.455 10.2111C17.6532 10.1887 17.8537 10.2196 18.036 10.3005C18.2182 10.3804 18.376 10.5071 18.4933 10.6679C18.6105 10.8286 18.6831 11.0176 18.7035 11.2155C18.8665 12.6077 18.592 14.016 17.9183 15.2451C17.2445 16.4742 16.2048 17.4631 14.9435 18.0744C13.6822 18.6858 12.2619 18.8894 10.8796 18.6569C9.49739 18.4244 8.2218 17.7674 7.22993 16.777C6.23805 15.7866 5.57909 14.512 5.34449 13.1302C5.10989 11.7483 5.3113 10.3276 5.92076 9.06541C6.53022 7.80319 7.51751 6.762 8.74558 6.08636C9.97365 5.41072 11.3816 5.13414 12.774 5.29501C12.9231 5.30884 13.0679 5.3523 13.2 5.42283C13.3321 5.49336 13.4487 5.58955 13.5432 5.70576C13.6376 5.82197 13.7079 5.95586 13.7499 6.09958C13.7919 6.2433 13.8048 6.39396 13.7878 6.54272C13.7708 6.69149 13.7243 6.83538 13.651 6.96594C13.5777 7.0965 13.4791 7.21112 13.3609 7.30307C13.2427 7.39502 13.1074 7.46246 12.9628 7.50143C12.8183 7.5404 12.6674 7.55011 12.519 7.53001C11.8885 7.4568 11.2496 7.51781 10.6443 7.70903C10.0391 7.90025 9.48112 8.21736 9.00711 8.63952C8.5331 9.06168 8.15376 9.57935 7.89401 10.1585C7.63426 10.7377 7.49998 11.3653 7.49998 12Z" fill="black"/>
</g>
<defs>
<clipPath id="clip0_739_4335">
<rect width="24" height="24" fill="white"/>
</clipPath>
</defs>
</svg>
