<svg width="25" height="24" viewBox="0 0 25 24" fill="none" xmlns="http://www.w3.org/2000/svg">
<path d="M13.59 13.59C13.9965 13.1835 14.2485 12.621 14.2485 12C14.2485 11.379 13.9965 10.8165 13.59 10.41C12.705 9.52501 3.51001 3.51001 3.51001 3.51001C3.51001 3.51001 9.51001 12.705 10.395 13.59C10.6039 13.8014 10.8526 13.9693 11.1268 14.0839C11.4011 14.1985 11.6953 14.2575 11.9925 14.2575C12.2897 14.2575 12.5839 14.1985 12.8582 14.0839C13.1324 13.9693 13.3811 13.8014 13.59 13.59Z" fill="black"/>
<path d="M11.9999 0V4.5H13.4999V2.385C18.2294 3.1275 21.8039 7.173 21.8039 12.0525C21.8036 13.5645 21.4528 15.0558 20.7789 16.4093C20.105 17.7628 19.1265 18.9416 17.9203 19.8532C16.714 20.7648 15.3128 21.3842 13.8267 21.6629C12.3406 21.9416 10.8102 21.872 9.35559 21.4595C7.90098 21.047 6.56183 20.3028 5.44332 19.2854C4.32481 18.2681 3.45742 17.0053 2.90927 15.5961C2.36112 14.187 2.14715 12.67 2.28417 11.1643C2.42118 9.65851 2.90545 8.20503 3.69893 6.918L2.32493 4.935C0.824688 6.98455 0.0189692 9.46005 0.0254292 12C0.0254292 14.3734 0.729217 16.6935 2.04779 18.6668C3.36637 20.6402 5.24051 22.1783 7.43323 23.0866C9.62594 23.9948 12.0387 24.2324 14.3665 23.7694C16.6943 23.3064 18.8325 22.1635 20.5107 20.4853C22.1889 18.8071 23.3318 16.6689 23.7949 14.3411C24.2579 12.0133 24.0202 9.60051 23.112 7.4078C22.2037 5.21509 20.6657 3.34094 18.6923 2.02236C16.7189 0.703788 14.3988 0 12.0254 0L11.9999 0Z" fill="black"/>
</svg>
