<svg width="18" height="18" viewBox="0 0 18 18" fill="none" xmlns="http://www.w3.org/2000/svg">
<g clip-path="url(#clip0_439_4081)">
<path d="M15.3416 2.65826L17.2271 3.03514C17.3284 3.05539 17.4116 3.12964 17.4409 3.22976C17.4556 3.2784 17.457 3.33013 17.4447 3.37946C17.4324 3.42878 17.407 3.47386 17.3711 3.50989L15.8265 5.05564C15.6417 5.2401 15.3912 5.34368 15.1301 5.34364H13.8488L10.6312 8.56227C10.6926 8.79404 10.7039 9.03623 10.6644 9.27271C10.6248 9.50919 10.5353 9.73453 10.4018 9.93371C10.2684 10.1329 10.094 10.3013 9.89029 10.4278C9.68661 10.5543 9.45831 10.636 9.2206 10.6673C8.98289 10.6987 8.74124 10.679 8.51173 10.6096C8.28222 10.5402 8.07013 10.4228 7.88958 10.265C7.70904 10.1072 7.56419 9.91278 7.46468 9.69464C7.36517 9.4765 7.3133 9.23965 7.3125 8.99989C7.31267 8.74102 7.37236 8.48565 7.48695 8.25352C7.60154 8.02139 7.76797 7.81872 7.97337 7.66116C8.17877 7.5036 8.41765 7.39537 8.67154 7.34485C8.92544 7.29432 9.18755 7.30285 9.43762 7.36977L12.6562 4.15001V2.87089C12.6562 2.60989 12.7597 2.35901 12.9442 2.17451L14.49 0.628765C14.526 0.59291 14.5711 0.56749 14.6204 0.555208C14.6698 0.542926 14.7215 0.544242 14.7701 0.559015C14.8702 0.588265 14.9445 0.671515 14.9648 0.772765L15.3416 2.65826Z" fill="#DA4646"/>
<path d="M2.25003 8.9999C2.25119 9.9651 2.45933 10.9188 2.86042 11.7968C3.26151 12.6747 3.84622 13.4564 4.5751 14.0891C5.30398 14.7219 6.16008 15.1909 7.08566 15.4647C8.01123 15.7384 8.98475 15.8105 9.94054 15.676C10.8963 15.5415 11.8122 15.2036 12.6263 14.685C13.4404 14.1665 14.1338 13.4794 14.6598 12.6701C15.1857 11.8608 15.532 10.9481 15.6753 9.9936C15.8185 9.03908 15.7554 8.06494 15.4902 7.1369C15.4529 7.02847 15.4381 6.9136 15.4467 6.79928C15.4553 6.68496 15.487 6.57358 15.54 6.47192C15.593 6.37027 15.6661 6.28045 15.7549 6.20796C15.8437 6.13546 15.9464 6.0818 16.0566 6.05023C16.1668 6.01867 16.2823 6.00986 16.396 6.02435C16.5097 6.03884 16.6193 6.07632 16.7181 6.13452C16.8169 6.19271 16.9027 6.2704 16.9705 6.36284C17.0383 6.45529 17.0866 6.56057 17.1124 6.67227C17.626 8.46949 17.5284 10.3864 16.835 12.1221C16.1416 13.8579 14.8916 15.3144 13.2811 16.2631C11.6706 17.2118 9.79073 17.599 7.9364 17.364C6.08207 17.129 4.35821 16.2851 3.03528 14.9646C1.71379 13.642 0.868952 11.918 0.633409 10.0633C0.397866 8.20851 0.784956 6.32804 1.73391 4.7171C2.68285 3.10617 4.13992 1.85599 5.87635 1.16286C7.61278 0.469718 9.53023 0.372872 11.3277 0.887522C11.5417 0.950085 11.7222 1.09482 11.8299 1.29011C11.9375 1.48539 11.9634 1.71534 11.9021 1.9297C11.8407 2.14406 11.6969 2.3254 11.5022 2.43409C11.3075 2.54279 11.0777 2.57 10.863 2.50977C9.85793 2.2214 8.79959 2.17043 7.77144 2.3609C6.74328 2.55136 5.77342 2.97805 4.93832 3.60732C4.10322 4.23659 3.4257 5.05125 2.95918 5.98706C2.49267 6.92287 2.2499 7.95425 2.25003 8.9999Z" fill="#DA4646"/>
<path d="M5.62505 8.99995C5.62512 9.61487 5.79307 10.2181 6.11078 10.7446C6.4285 11.271 6.88393 11.7008 7.42794 11.9874C7.97195 12.2741 8.58391 12.4068 9.19779 12.3712C9.81167 12.3356 10.4042 12.1331 10.9114 11.7855C11.4186 11.437 11.8208 10.9565 12.0746 10.3959C12.3284 9.83537 12.4241 9.2161 12.3514 8.60508C12.3318 8.4568 12.352 8.30597 12.41 8.1681C12.468 8.03024 12.5617 7.91032 12.6814 7.82071C12.8012 7.73109 12.9427 7.67502 13.0913 7.65825C13.2399 7.64149 13.3903 7.66464 13.527 7.72533C13.6637 7.78523 13.7821 7.8803 13.87 8.00086C13.958 8.12141 14.0124 8.26314 14.0277 8.41158C14.1499 9.45569 13.9441 10.512 13.4388 11.4338C12.9334 12.3556 12.1537 13.0972 11.2077 13.5558C10.2617 14.0143 9.19646 14.167 8.15978 13.9926C7.1231 13.8182 6.16641 13.3255 5.42251 12.5827C4.6786 11.8399 4.18438 10.884 4.00843 9.84757C3.83248 8.81115 3.98354 7.74567 4.44063 6.799C4.89773 5.85234 5.63819 5.07144 6.55924 4.56471C7.4803 4.05798 8.53625 3.85055 9.58055 3.9712C9.69237 3.98158 9.80099 4.01417 9.90005 4.06707C9.99911 4.11997 10.0866 4.19211 10.1574 4.27927C10.2283 4.36642 10.281 4.46684 10.3125 4.57463C10.344 4.68242 10.3536 4.79541 10.3409 4.90699C10.3282 5.01857 10.2933 5.12648 10.2383 5.2244C10.1834 5.32232 10.1094 5.40829 10.0208 5.47725C9.93212 5.54622 9.83062 5.59679 9.72219 5.62602C9.61376 5.65525 9.50058 5.66253 9.3893 5.64745C8.91641 5.59255 8.43726 5.6383 7.98332 5.78172C7.52937 5.92514 7.1109 6.16297 6.75539 6.47959C6.39988 6.79621 6.11538 7.18446 5.92057 7.61884C5.72576 8.05321 5.62505 8.52389 5.62505 8.99995Z" fill="#DA4646"/>
</g>
<defs>
<clipPath id="clip0_439_4081">
<rect width="18" height="18" fill="white"/>
</clipPath>
</defs>
</svg>
