<svg width="24" height="24" viewBox="0 0 24 24" fill="none" xmlns="http://www.w3.org/2000/svg">
<path d="M1.19977 13.2001H2.3998V21.6C2.3998 22.9236 3.47622 24 4.79985 24H19.2002C20.5238 24 21.6002 22.9236 21.6002 21.6V13.2001H22.8002C23.0375 13.2001 23.2695 13.1297 23.4668 12.9978C23.6641 12.8659 23.8179 12.6785 23.9087 12.4593C23.9995 12.2401 24.0232 11.9988 23.977 11.7661C23.9307 11.5333 23.8164 11.3196 23.6487 11.1517L12.8484 0.351838C12.7371 0.240304 12.6048 0.15182 12.4592 0.0914473C12.3137 0.031075 12.1576 0 12 0C11.8424 0 11.6863 0.031075 11.5408 0.0914473C11.3952 0.15182 11.2629 0.240304 11.1516 0.351838L0.351352 11.1517C0.183577 11.3196 0.0693267 11.5333 0.0230447 11.7661C-0.0232374 11.9988 0.000526752 12.2401 0.0913327 12.4593C0.182139 12.6785 0.335909 12.8659 0.533205 12.9978C0.730502 13.1297 0.962465 13.2001 1.19977 13.2001ZM9.59995 21.6V15.6001H14.4001V21.6H9.59995ZM12 2.89701L19.2002 10.0969V15.6001L19.2014 21.6H16.8001V15.6001C16.8001 14.2765 15.7237 13.2001 14.4001 13.2001H9.59995C8.27632 13.2001 7.1999 14.2765 7.1999 15.6001V21.6H4.79985V10.0969L12 2.89701Z" fill="#251A1B"/>
</svg>
