<svg width="24" height="24" viewBox="0 0 24 24" fill="none" xmlns="http://www.w3.org/2000/svg">
<g clip-path="url(#clip0_561_4105)">
<path d="M6.46154 0C5.95292 0 5.53846 0.414462 5.53846 0.923077V3.69231C5.53846 4.20092 5.95292 4.61538 6.46154 4.61538C6.97015 4.61538 7.38462 4.20092 7.38462 3.69231V0.923077C7.38462 0.414462 6.97015 0 6.46154 0ZM17.5385 0C17.0298 0 16.6154 0.414462 16.6154 0.923077V3.69231C16.6154 4.20092 17.0298 4.61538 17.5385 4.61538C18.0471 4.61538 18.4615 4.20092 18.4615 3.69231V0.923077C18.4615 0.414462 18.0471 0 17.5385 0ZM2.76923 1.84615C1.24062 1.84615 0 3.08677 0 4.61538V21.2308C0 22.7594 1.24062 24 2.76923 24H21.2308C22.7594 24 24 22.7594 24 21.2308V4.61538C24 3.08677 22.7594 1.84615 21.2308 1.84615H19.3846V3.69231C19.3846 4.18194 19.1901 4.65151 18.8439 4.99774C18.4977 5.34396 18.0281 5.53846 17.5385 5.53846C17.0488 5.53846 16.5793 5.34396 16.233 4.99774C15.8868 4.65151 15.6923 4.18194 15.6923 3.69231V1.84615H8.30769V3.69231C8.30769 4.18194 8.11319 4.65151 7.76697 4.99774C7.42075 5.34396 6.95117 5.53846 6.46154 5.53846C5.97191 5.53846 5.50233 5.34396 5.15611 4.99774C4.80989 4.65151 4.61538 4.18194 4.61538 3.69231V1.84615H2.76923ZM1.84615 8.30769H22.1538V21.2308C22.1538 21.7394 21.7394 22.1538 21.2308 22.1538H2.76923C2.26062 22.1538 1.84615 21.7394 1.84615 21.2308V8.30769ZM8.30769 11.0769V13.212H12.7505L9.25938 20.2791H12.4615L15.6637 12.4902V11.0769H8.30769Z" fill="black"/>
</g>
<defs>
<clipPath id="clip0_561_4105">
<rect width="24" height="24" fill="white"/>
</clipPath>
</defs>
</svg>
